/* XPM */
static const char *icon_codetogui64x64_xpm[] = {
/* columns rows colors chars-per-pixel */
"64 64 120 2 ",
"   c #002E23",
".  c #003024",
"X  c #005541",
"o  c #008B6B",
"O  c #01B48B",
"+  c #01CF9F",
"@  c #01DDAB",
"#  c #01F1BA",
"$  c #008A6A",
"%  c #00755A",
"&  c #01D6A5",
"*  c #01FCC3",
"=  c #01FEC4",
"-  c #009673",
";  c #003528",
":  c #01B289",
">  c #009573",
",  c #01AF87",
"<  c #006950",
"1  c #01C296",
"2  c #01FDC3",
"3  c #01CD9E",
"4  c #01A882",
"5  c #00614B",
"6  c #004635",
"7  c #01F4BC",
"8  c #01F8C0",
"9  c #007B5E",
"0  c #006A52",
"q  c #019774",
"w  c #008567",
"e  c #01FCC2",
"r  c #00503E",
"t  c #009472",
"y  c #01E6B1",
"u  c #003629",
"i  c #019A77",
"p  c #019B78",
"a  c #01DDAA",
"s  c #019C78",
"d  c #01DAA8",
"f  c #01A881",
"g  c #01C79A",
"h  c #01B38A",
"j  c #004D3B",
"k  c #01F6BE",
"l  c #002F24",
"z  c #01BA90",
"x  c #01F7BE",
"c  c #004C3A",
"v  c #005843",
"b  c #00775C",
"n  c #01CB9C",
"m  c #254C43",
"M  c #395D54",
"N  c #365A52",
"B  c #224A40",
"V  c #01EAB4",
"C  c #01E5B0",
"Z  c #004737",
"A  c #ADBCB8",
"S  c white",
"D  c #9FB0AC",
"F  c #01D8A6",
"G  c #00513E",
"H  c #01D0A1",
"J  c #003D2F",
"K  c #004636",
"L  c #AEBDB9",
"P  c #005743",
"I  c #00765B",
"U  c #345950",
"Y  c #517069",
"T  c #4D6D65",
"R  c #4B6B64",
"E  c #507068",
"W  c #E7EBEA",
"Q  c #01F5BD",
"!  c #004B39",
"~  c #043126",
"^  c #DDE3E2",
"/  c #01F2BB",
"(  c #008365",
")  c #01B188",
"_  c #01A47F",
"`  c #01CC9D",
"'  c #01D9A8",
"]  c #019674",
"[  c #00896A",
"{  c #004A38",
"}  c #007358",
"|  c #008465",
" . c #004F3C",
".. c #01FAC1",
"X. c #01EAB5",
"o. c #005B46",
"O. c #009671",
"+. c #398A77",
"@. c #708A84",
"#. c #6F8983",
"$. c #728B85",
"%. c #ECEFEF",
"&. c #007B5F",
"*. c #00FEC0",
"=. c #82FEE2",
"-. c #01C598",
";. c #81FEE2",
":. c #004031",
">. c #01C99B",
",. c #003327",
"<. c #01E3AF",
"1. c #00634C",
"2. c #019A76",
"3. c #01C195",
"4. c #01E1AD",
"5. c #00E7AF",
"6. c #73E8CE",
"7. c #E3E8E7",
"8. c #F1F4F3",
"9. c #8EA29E",
/* pixels */
"                                                                                                                                ",
"                                                                                                                                ",
"                                                                                                                                ",
"                                                                                                                                ",
"                                                                                                                                ",
"                                                                                                                                ",
"                                                . X o O + @ # $                                                                 ",
"                                              % & * = = = = = -                                                                 ",
"                                          ; : = = = = = = = = >                                                                 ",
"                                          , = = = = = = = = = >                                                                 ",
"                                        < = = = = = = = = = = -                                                                 ",
"                                        1 = = = = = = = 2 3 4 5                                                                 ",
"                                      6 7 = = = = = = 8 9                                                                       ",
"                                      0 = = = = = = = q                                                                         ",
"                                      w = = = = = = e r                                                                         ",
"                                      t = = = = = = y u                                                                         ",
"                                      i = = = = = = @ .                                                                         ",
"                                      p = = = = = = a .                                                                         ",
"                                      p = = = = = = a .                                                                         ",
"                                      p = = = = = = a .                                                                         ",
"                                      p = = = = = = a .                                                                         ",
"                                      p = = = = = = a .                                                                         ",
"                                      p = = = = = = a .                                                                         ",
"                                      s = = = = = = d                                                                           ",
"                                      f = = = = = = 3                                                                           ",
"                                      g = = = = = = h                                                                           ",
"                                    j k = = = = = = w                                                                           ",
"                                  l z = = = = = = x c                                                                           ",
"                              v b n = = = = = = = O                     m M N N N N N N N N M B                                 ",
"                              V = = = = = = = = C Z                     A S S S S S S S S S S D                                 ",
"                              V = = = = = = = F G                       A S S S S S S S S S S D                                 ",
"                              V = = = = = = H J                         A S S S S S S S S S S D                                 ",
"                              V = = = = = = = F G                       A S S S S S S S S S S D                                 ",
"                              V = = = = = = = = C K                     L S S S S S S S S S S D                                 ",
"                              P I g = = = = = = = h                     U Y T T R E W S S S S D                                 ",
"                                    O = = = = = = Q !                             ~ ^ S S S S D                                 ",
"                                    Z / = = = = = = (                             ~ ^ S S S S D                                 ",
"                                      1 = = = = = = )                             ~ ^ S S S S D                                 ",
"                                      _ = = = = = = `                             ~ ^ S S S S D                                 ",
"                                      p = = = = = = '                             ~ ^ S S S S D                                 ",
"                                      p = = = = = = a .                           ~ ^ S S S S D                                 ",
"                                      p = = = = = = a .                           ~ ^ S S S S D                                 ",
"                                      p = = = = = = a .                           ~ ^ S S S S D                                 ",
"                                      p = = = = = = a .                           ~ ^ S S S S D                                 ",
"                                      p = = = = = = a .                           ~ ^ S S S S D                                 ",
"                                      p = = = = = = a .                           ~ ^ S S S S D                                 ",
"                                      p = = = = = = @ .                           ~ ^ S S S S D                                 ",
"                                      ] = = = = = = C u                           ~ ^ S S S S D                                 ",
"                                      [ = = = = = = 8 {                           ~ ^ S S S S D                                 ",
"                                      } = = = = = = = |                           ~ ^ S S S S D                                 ",
"                                       ...= = = = = = X.o.                        ~ ^ S S S S D                                 ",
"                                        H = = = = = = = k z O.+.@.@.@.@.@.@.@.@.#.$.%.S S S S D                                 ",
"                                        &.= = = = = = = = = *.=.S S S S S S S S S S S S S S S D                                 ",
"                                        l -.= = = = = = = = *.;.S S S S S S S S S S S S S S S D                                 ",
"                                          :.>.= = = = = = = *.;.S S S S S S S S S S S S S S S D                                 ",
"                                            ,.$ <.= = = = = *.;.S S S S S S S S S S S S S S S D                                 ",
"                                                ; 1.2.3.& 4.5.6.7.7.7.7.7.7.7.7.7.7.7.7.7.7.8.9.                                ",
"                                                                                                                                ",
"                                                                                                                                ",
"                                                                                                                                ",
"                                                                                                                                ",
"                                                                                                                                ",
"                                                                                                                                ",
"                                                                                                                                "
};
